<?xml version="1.0" standalone="no"?>
<!DOCTYPE svg PUBLIC "-//W3C//DTD SVG 20010904//EN"
 "http://www.w3.org/TR/2001/REC-SVG-20010904/DTD/svg10.dtd">
<svg version="1.0" xmlns="http://www.w3.org/2000/svg"
 width="1244.000000pt" height="754.000000pt" viewBox="0 0 1244.000000 754.000000"
 preserveAspectRatio="xMidYMid meet">

<g transform="translate(0.000000,754.000000) scale(0.100000,-0.100000)"
fill="#FFFFFF" stroke="none">
<path d="M5970 7516 c-224 -34 -405 -92 -625 -200 -726 -357 -1408 -1148
-1977 -2292 l-129 -261 -77 25 -77 26 -385 1 c-430 0 -450 -2 -586 -71 -134
-67 -252 -201 -305 -346 -20 -56 -23 -86 -27 -275 l-4 -213 -499 0 c-452 0
-499 2 -499 16 0 33 -65 137 -112 179 -27 24 -75 57 -106 72 -51 25 -68 27
-162 28 -99 0 -110 -2 -170 -32 -157 -77 -240 -225 -227 -403 3 -41 15 -101
27 -133 30 -79 113 -167 195 -208 203 -100 468 3 542 211 l18 50 496 0 497 0
4 -212 c5 -246 15 -287 99 -413 55 -81 104 -129 190 -185 106 -68 162 -82 347
-88 161 -4 164 -4 158 -26 -40 -164 -121 -631 -151 -876 -43 -354 -47 -445
-52 -1108 -4 -590 -3 -655 11 -677 9 -14 24 -25 34 -25 10 0 83 39 162 86 583
345 1064 454 1537 348 154 -34 335 -97 528 -184 468 -211 553 -244 737 -291
116 -30 137 -32 352 -36 239 -5 349 3 507 37 209 46 351 105 638 264 219 122
323 170 465 215 332 107 811 106 1146 -1 125 -40 237 -91 417 -190 81 -45 199
-106 261 -135 227 -109 539 -193 713 -193 103 0 140 14 158 59 20 47 9 1353
-13 1566 -34 336 -77 628 -137 930 -22 110 -41 207 -42 215 -2 13 24 16 158
21 140 5 168 9 227 32 152 59 272 165 338 301 61 124 70 173 70 383 l0 183
495 0 c463 0 496 -1 501 -17 35 -106 125 -207 221 -250 78 -34 187 -42 268
-18 154 44 259 163 287 325 31 182 -59 364 -221 443 -61 29 -73 32 -171 32
-93 0 -111 -3 -163 -27 -98 -46 -186 -146 -221 -250 -5 -17 -38 -18 -501 -18
l-495 0 0 182 c0 210 -11 272 -71 388 -50 98 -112 168 -204 228 -142 96 -235
112 -640 112 -293 0 -402 -9 -487 -37 l-56 -19 -145 290 c-271 540 -551 978
-878 1371 -117 141 -424 445 -554 549 -251 201 -567 381 -807 460 -196 65
-328 87 -548 91 -129 3 -224 0 -280 -9z m-552 -2465 c42 -22 62 -42 88 -91 18
-34 19 -81 19 -1221 l0 -1186 -30 -48 c-20 -32 -45 -56 -74 -72 -44 -23 -45
-23 -428 -23 -324 0 -389 2 -421 15 -47 20 -79 50 -103 97 -19 37 -19 72 -17
1231 l3 1194 28 41 c16 22 48 50 70 61 40 20 59 21 435 21 366 0 395 -1 430
-19z m2429 8 c40 -15 82 -57 104 -104 18 -38 19 -93 19 -1213 0 -1036 -2
-1177 -15 -1210 -21 -49 -52 -81 -100 -103 -37 -17 -72 -19 -426 -19 -385 0
-386 0 -430 23 -24 13 -57 43 -74 66 l-30 43 -3 1175 c-1 792 1 1187 8 1213
13 49 51 95 99 120 34 18 61 19 428 20 253 0 402 -4 420 -11z"/>
<path d="M4899 4076 c-102 -27 -181 -95 -228 -196 -22 -46 -26 -69 -26 -140 0
-76 4 -93 33 -152 132 -269 527 -250 632 30 31 80 25 205 -13 278 -74 144
-245 222 -398 180z"/>
<path d="M7327 4071 c-76 -25 -129 -63 -172 -121 -49 -67 -67 -123 -68 -210
-1 -95 33 -176 101 -243 192 -188 504 -103 578 157 31 110 -1 236 -81 325 -84
92 -237 132 -358 92z"/>
</g>
</svg>
